<?xml version="1.0" encoding="utf-8"?>
<!-- Generator: Adobe Illustrator 26.1.0, SVG Export Plug-In . SVG Version: 6.00 Build 0)  -->
<svg version="1.1" id="Layer_1" xmlns="http://www.w3.org/2000/svg" xmlns:xlink="http://www.w3.org/1999/xlink" x="0px" y="0px"
	 viewBox="0 0 720 181" style="enable-background:new 0 0 720 181;" xml:space="preserve">
<style type="text/css">
	.st0{fill:#FFFFFF;}
</style>
<g>
	<g>
		<g>
			<path class="st0" d="M254.4,82.2c-0.6,7.4-1.3,14.8-1.9,22.3c-0.2,2.5,4.1,3.2,4.5,0.6c1.4-8.3,2.7-16.6,4.1-24.9
				c-1.5,0-3.1,0-4.6,0c0.6,2,1.1,4,1.7,6c0.5,1.8,0.9,3.6,1.6,5.3c1.3,3.1,4.2,6.2,7.9,4.5c3.3-1.6,3.5-5.7,4-8.8
				c0.6-4.2,1.2-8.4,1.8-12.5c-1.6-0.2-3.3-0.4-4.9-0.7c1.4,11.8,2.8,23.7,4.2,35.5c0.2,1.4,1.1,2.7,2.7,2.7c1.4,0,2.8-1.2,2.7-2.7
				c-0.1-0.7-0.2-1.4-0.3-2.1c-0.4-2.4-4.3-2.3-4.8,0c-0.1,0.7-0.3,1.4-0.3,2.1c1.8,0,3.6,0,5.4,0c-1.6-11.8-3.1-23.7-4.6-35.5
				c-0.2-1.2-0.8-2.3-2.2-2.4c-1.1-0.1-2.6,0.5-2.7,1.8c-0.5,3.4-0.9,6.8-1.4,10.1c-0.4,2.6-0.3,5.7-1.6,8.1
				c-0.1,0.3-0.3,0.1-0.1,0.1c0,0,0.3,0.2,0,0c-0.1-0.1-0.2-0.1-0.3-0.3c-0.7-0.7-1-1.7-1.3-2.6c-1-3.3-1.9-6.6-2.8-9.9
				c-0.6-2.1-4.2-2.4-4.6,0c-1.3,8.3-2.6,16.6-3.9,25c1.5,0.2,3,0.4,4.5,0.6c0.5-7.4,1.1-14.8,1.6-22.3
				C258.8,79.4,254.6,79.5,254.4,82.2L254.4,82.2z"/>
		</g>
	</g>
	<g>
		<g>
			<path class="st0" d="M280.2,106.5c1.8-10,3.7-19.9,5.5-29.9c-1.4,0-2.8,0-4.1,0c1.3,6.3,2.7,12.5,4,18.8c0.7,3.1,1.3,6.2,2,9.3
				c0.3,1.5,0.7,3.1,1,4.6c0.3,1.6,0.6,3.3,1.1,4.9c1.4-0.6,2.8-1.2,4.2-1.8c-0.6-0.9-1.1-1.9-1.7-2.8c-0.9-1.2-3.4-1-3.1,0.9
				c0.1,1.1,0.5,2.1,0.6,3.1c0.2,1.2,0.9,2.3,2.3,2.3c1.2,0,2.4-1.1,2.3-2.3c-0.3-3.2-1.3-6.5-2.1-9.6c-0.7-3.2-1.4-6.3-2.1-9.5
				c-1.4-6.3-2.9-12.7-4.3-19c-0.4-2-3.8-2.1-4.1,0c-1.7,10-3.2,20-4.9,30C276.4,107.8,279.8,108.9,280.2,106.5L280.2,106.5z"/>
		</g>
	</g>
	<g>
		<g>
			<path class="st0" d="M276.8,101.5c3.1-0.4,6.2-0.8,9.3-1.3c1.5-0.2,3-0.4,4.5-0.7c1.6-0.2,3.4-0.3,4.8-1c1.6-0.9,1.4-3.8-0.5-4.2
				c-1.7-0.3-3.4,0.2-5,0.6c-1.5,0.3-3,0.6-4.6,0.9c-3,0.6-6,1.2-8.9,1.9c-0.9,0.2-1.5,1.2-1.4,2.1
				C275.1,100.6,275.9,101.6,276.8,101.5L276.8,101.5z"/>
		</g>
	</g>
	<g>
		<g>
			<path class="st0" d="M291.3,84.6c0.9,4.4,1.8,8.8,2.6,13.2c0.9,4.4,1.6,8.9,2.7,13.2c0.3,1.4,2,2.1,3.3,1.6
				c1.4-0.6,1.8-2.1,1.2-3.4c-0.1-0.3-0.3-0.5-0.4-0.8c-0.4-1-1.2-1.7-2.3-1.5c-1,0.2-1.8,1-1.8,2.1c0,0.5,0,1,0,1.5
				c1.6-0.2,3.2-0.4,4.8-0.6c-0.8-4.4-2-8.8-3-13.2c-1-4.4-2-8.8-3-13.1C294.7,80.9,290.8,82,291.3,84.6L291.3,84.6z"/>
		</g>
	</g>
	<g>
		<g>
			<path class="st0" d="M289.6,82.5c5.8-3,14.5-6.8,20.1-1.1c2.5,2.6,2.1,6.3,0.9,9.4c-1.5,3.8-3.9,7.3-6.4,10.6
				c-1.3,1.8-2.8,3.5-4.3,5.2c-1.7,1.9-3.5,3.6-5,5.6c-1.4,1.9,1.3,4.6,3.3,3.3c2.1-1.4,3.7-3.4,5.3-5.3c1.6-1.9,3-3.8,4.4-5.8
				c2.7-3.9,5.5-8,7.2-12.5c1.6-4.4,1.5-9.2-1.6-12.9c-2.5-3.1-6.6-4.6-10.5-4.8c-5.6-0.3-10.8,2.3-15.6,4.9
				C285.2,80.2,287.3,83.7,289.6,82.5L289.6,82.5z"/>
		</g>
	</g>
	<g>
		<g>
			<path class="st0" d="M314.5,86.2c1.2,4.1,2.1,8.2,2.7,12.4c0.3,2,0.4,4.1,0.5,6.2c0.1,2.2,0,4.5,0.2,6.7c0.3,3.4,5.2,2.8,4.7-0.6
				c-0.1-0.4-0.1-0.9-0.1-1.4c-0.2-2.1-3.3-2.8-3.9-0.5c-0.2,0.6-0.3,1.3-0.5,1.9c1.5,0.4,3.1,0.8,4.6,1.3c0.6-4.5-0.1-9.4-0.7-13.8
				c-0.7-4.5-1.7-8.9-3.1-13.2C317.9,82.3,313.7,83.5,314.5,86.2L314.5,86.2z"/>
		</g>
	</g>
	<g>
		<g>
			<path class="st0" d="M318.5,87.9c2.5-0.5,5-1.1,7.5-1.6c2.6-0.5,5.1-1.1,7.6-2.2c0.7-0.3,1-1.3,0.8-2c-0.2-0.8-0.9-1.3-1.7-1.3
				c-2.6,0-5.3,0.6-7.9,1.1c-2.5,0.5-5,1.1-7.5,1.6c-1.2,0.3-1.9,1.7-1.6,2.8C316,87.6,317.3,88.2,318.5,87.9L318.5,87.9z"/>
		</g>
	</g>
	<g>
		<g>
			<path class="st0" d="M321.4,97.7c2.2-1.3,4.5-2.2,7-2.8c1.3-0.3,2.3-0.4,3.5-0.6c1.4-0.1,2.8-0.2,4.2-0.5
				c0.7-0.2,1.2-0.9,1.2-1.6c0-0.8-0.5-1.4-1.2-1.6c-2.7-1.1-6.1-0.6-8.9,0.1c-2.8,0.7-5.6,1.8-8,3.3c-1,0.6-1.4,2-0.8,3
				C319,97.9,320.4,98.3,321.4,97.7L321.4,97.7z"/>
		</g>
	</g>
	<g>
		<g>
			<path class="st0" d="M323.1,111.6c2.4-0.9,4.7-1.8,7.1-2.8c1.2-0.5,2.5-1,3.7-1.5c1.3-0.6,2.6-1,3.4-2.2c0.6-0.9,0-2.2-1-2.4
				c-1.4-0.3-2.7,0.2-4,0.7c-1.2,0.4-2.3,0.9-3.5,1.4c-2.3,0.9-4.6,1.9-6.9,2.8c-1,0.4-1.8,1.4-1.5,2.6
				C320.9,111.2,322,112.1,323.1,111.6L323.1,111.6z"/>
		</g>
	</g>
	<g>
		<g>
			<path class="st0" d="M349,83.4c0.7,4,1.5,7.9,2.2,11.9c0.4,1.9,0.7,3.9,1.1,5.8c0.4,2,0.6,4.1,1.2,6c0.8,2.9,5.6,1.5,4.5-1.2
				c-0.5-1.2-0.6-2.6-0.9-3.9c-0.4-2-3.5-1.5-3.5,0.5c0,1.1,0.1,2.3-0.1,3.4c1.5,0.2,3.1,0.4,4.6,0.6c-0.4-4.1-1.6-8.2-2.4-12.2
				c-0.8-4-1.6-8-2.4-12c-0.2-1.2-1.6-1.8-2.7-1.5C349.3,81,348.8,82.2,349,83.4L349,83.4z"/>
		</g>
	</g>
	<g>
		<g>
			<path class="st0" d="M345.5,81.6c2.2-2.4,4.8-4.4,7.9-5.6c1.5-0.6,3-1.1,4.6-1.4c0.9-0.2,2.9-0.7,3.5,0.3c0.6,1-0.1,2.8-0.3,3.7
				c-0.5,1.6-1,3.2-1.8,4.7c-1.4,2.7-3.3,5.8-5.9,7.6c-2.4,1.6-0.2,5.5,2.3,3.9c1.4-0.9,2.7-2,4.2-2.9c1.4-0.8,2.9-1.4,4.5-1.8
				c0.7-0.2,1.4-0.4,2.1-0.4c0,0,0.7,0.2,0.5,0c0.5,0.5-0.2,2.3-0.5,2.9c-2.9,5.7-7.6,10-13.1,13.2c1,1.3,2,2.6,3,3.9
				c0.7-0.6,1.4-1.3,2.1-1.9c0.7-0.6,0.7-1.9,0.2-2.6c-0.7-0.8-1.6-0.9-2.5-0.5c-0.9,0.4-1.8,0.7-2.7,1.1c-2.8,1.3-0.3,5.8,2.5,4.2
				c3.6-2,7-4.8,9.7-7.9c2.4-2.8,5.3-6.3,6.1-10c0.4-1.9,0.3-3.9-1.1-5.5c-1.5-1.7-3.8-1.9-5.9-1.5c-2.1,0.4-4.2,1.2-6.1,2.1
				c-2,1-4.2,2.3-5.7,3.9c1.1,1.1,2.1,2.1,3.2,3.2c1.5-1.6,3-3.2,4.3-4.9c1.2-1.6,2.2-3.4,3-5.2c1.5-3.3,3.6-8.4,1.4-11.8
				c-2.4-3.8-8.3-2.1-11.7-0.8c-3.9,1.5-7.5,3.9-10.3,7.1C341.2,80.8,343.8,83.4,345.5,81.6L345.5,81.6z"/>
		</g>
	</g>
	<g>
		<g>
			<path class="st0" d="M372.3,90.2c1.7,1.7,3.5,3.5,5.2,5.2c0.8,0.8,1.7,1.7,2.5,2.5c1,1,2.1,2.1,3.6,2.5c1.3,0.3,2.6-0.9,2.2-2.2
				c-0.4-1.4-1.5-2.4-2.5-3.4c-0.9-0.9-1.8-1.7-2.7-2.6c-1.8-1.7-3.6-3.4-5.3-5.1c-0.8-0.8-2.3-0.9-3.1,0
				C371.6,88,371.5,89.3,372.3,90.2L372.3,90.2z"/>
		</g>
	</g>
	<g>
		<g>
			<path class="st0" d="M385.6,82.2c-1.7,11.9-4,23.6-6.8,35.3c1.6,0.2,3.1,0.4,4.7,0.6c0-1.2,0-2.3,0-3.5c0-2.2-3.3-2.7-3.8-0.5
				c-0.3,1.1-0.5,2.3-0.8,3.4c-0.7,3,3.9,4.3,4.6,1.3c2.7-11.9,4.6-23.9,6.1-36C389.8,80.5,385.9,80,385.6,82.2L385.6,82.2z"/>
		</g>
	</g>
	<g>
		<g>
			<path class="st0" d="M407.5,81.6c0.5,3.7,0.8,7.5,1,11.3c0.1,1.8,0.1,3.7,0.1,5.5c0,2-0.3,4-0.1,5.9c1.5-0.2,2.9-0.4,4.4-0.6
				c-0.2-1.1-0.4-2.1-0.8-3.2c-0.4-1.5-3-1.8-3.3,0c-0.2,1.3-0.3,2.5-0.4,3.8c-0.2,2.5,4,3.1,4.4,0.6c0.3-2,0.2-4.1,0.2-6.1
				c0-2.1-0.1-4.1-0.2-6.2c-0.3-4.1-0.8-8.1-1.4-12.1c-0.2-1.1-1.5-1.6-2.4-1.4C407.8,79.4,407.4,80.5,407.5,81.6L407.5,81.6z"/>
		</g>
	</g>
	<g>
		<g>
			<path class="st0" d="M395.9,85.7c10.6-2.8,21.2-5.6,31.8-8.4c-0.8-1.3-1.6-2.7-2.4-4c-0.7,0.7-1.4,1.5-1.8,2.4
				c-0.6,1.4,0.4,3.6,2.2,2.9c1.1-0.5,2.1-1.1,3-1.9c1.8-1.7-0.1-4.7-2.4-4c-10.5,3-21.1,6-31.6,9C392.2,82.4,393.3,86.4,395.9,85.7
				L395.9,85.7z"/>
		</g>
	</g>
	<g>
		<g>
			<path class="st0" d="M418.9,84.5c0.2,5.9,0.5,11.7,0.6,17.6c1.5,0,2.9,0,4.4,0c-0.2-4.2,0-8.5,1.1-12.6c0.5-2,1.1-4,1.9-5.9
				c0.5-1.3,1.2-3.4,2.6-4.1c0.4-0.2,0.6,0,0.3-0.2c0.3,0.3,0.3,0.8,0.2,1.3c-0.1,1.3-0.8,2.7-1.5,3.8c-1.8,3-4.5,5.3-7.7,6.8
				c-1.6,0.7-1.7,3.6,0,4.3c2.4,1.1,4.8,2.5,6.8,4.2c1,0.9,1.9,1.8,2.8,2.8c0.9,1.1,1.7,2.3,2.7,3.3c1.6,1.5,4.5,0.1,3.9-2.2
				c-0.9-2.9-3.5-5.5-5.8-7.4c-2.4-2-5-3.7-7.8-4.9c0,1.4,0,2.9,0,4.3c3.4-1.6,6.3-4.2,8.5-7.2c2-2.7,3.7-6.4,2.8-9.8
				c-0.5-1.7-1.8-3.2-3.6-3.7c-2-0.5-4,0.3-5.4,1.8c-1.4,1.4-2.2,3.2-2.9,5c-0.8,2-1.5,4-2,6.1c-1.2,4.7-1.6,9.6-1.1,14.5
				c0.1,1.2,0.9,2.2,2.2,2.2c1.1,0,2.3-1,2.2-2.2c-0.4-5.9-0.7-11.7-1-17.6C422.7,82,418.8,81.9,418.9,84.5L418.9,84.5z"/>
		</g>
	</g>
	<g>
		<g>
			<path class="st0" d="M438.1,102.2c2.8-10.5,5.6-21,8.4-31.5c-1.6-0.2-3.1-0.4-4.7-0.6c0.7,6.1,1.5,12.2,2.4,18.3
				c0.5,3,1,6,1.5,8.9c0.3,1.4,0.5,2.9,0.8,4.3c0.3,1.6,0.5,3.3,1.1,4.8c1.3-0.8,2.7-1.6,4-2.3c-0.5-0.6-1-1.2-1.5-1.7
				c-1.3-1.4-3.3,0.1-3,1.8c0.2,0.8,0.3,1.6,0.5,2.3c0.7,2.6,4.8,2.1,4.7-0.6c0-1.5-0.5-3-0.8-4.5c-0.3-1.5-0.6-3-0.9-4.6
				c-0.6-3-1.1-5.9-1.6-8.9c-1-5.9-1.8-11.8-2.5-17.7c-0.1-1.2-0.8-2.2-2.1-2.4c-1.2-0.1-2.3,0.5-2.6,1.7
				c-2.6,10.5-5.3,21.1-7.9,31.6C433.2,103.7,437.4,104.8,438.1,102.2L438.1,102.2z"/>
		</g>
	</g>
	<g>
		<g>
			<path class="st0" d="M433.2,97.8c3.4-1.2,6.9-2.1,10.4-2.8c3.5-0.7,7.1-1.2,10.6-1.9c2.1-0.4,1.4-3.4-0.5-3.5
				c-7.3-0.5-14.9,1.5-21.7,3.9c-1.1,0.4-1.9,1.5-1.6,2.7C430.8,97.4,432.1,98.2,433.2,97.8L433.2,97.8z"/>
		</g>
	</g>
	<g>
		<g>
			<path class="st0" d="M448.3,84.9c4.3,7.9,8.6,15.8,12.9,23.7c1.2,2.3,5.1,1.3,5-1.3c-0.4-6.7-0.1-13.4,1.1-20
				c0.6-3.3,1.4-6.5,2.4-9.7c1-3.3,2.4-6.4,3.6-9.6c-1.5,0.4-3.1,0.8-4.6,1.2c-0.2-0.4-0.3-0.9-0.3-1.3c-1.2,1.7,0.8,3.6,2.5,3.3
				c2.5-0.6,3-3.2,2.1-5.2c-0.8-1.9-3.9-1.7-4.7,0c-3.1,6.3-5.1,13.4-6.3,20.2c-1.2,7-1.7,14.1-1.1,21.2c1.7-0.4,3.3-0.9,5-1.3
				c-4.5-7.8-9-15.6-13.4-23.5C450.8,79.9,446.8,82.3,448.3,84.9L448.3,84.9z"/>
		</g>
	</g>
	<g>
		<g>
			<path class="st0" d="M233,81.2c0.7,2.8,1.2,5.6,1.5,8.4c0.2,1.5,0.3,2.9,0.3,4.4c0.1,1.5,0,2.9,0.1,4.4c0.1,1.2,1,2.3,2.3,2.3
				c1.1,0,2.4-1.1,2.3-2.3c-0.1-0.5-0.1-1-0.2-1.4c-0.1-1-0.7-1.8-1.7-1.9c-1-0.1-1.9,0.5-2.2,1.4c-0.1,0.5-0.3,0.9-0.4,1.4
				c1.5,0.2,3,0.4,4.5,0.6c0.1-1.6-0.1-3.2-0.2-4.7c-0.1-1.5-0.3-3.1-0.5-4.6c-0.4-3-1.1-6-1.9-8.9C236.3,77.6,232.4,78.7,233,81.2
				L233,81.2z"/>
		</g>
	</g>
	<g>
		<g>
			<path class="st0" d="M240.5,78.1c0.8,3.4,1.4,6.8,1.8,10.3c0.4,3.6,0.4,7.2,0.9,10.8c1.6-0.4,3.2-0.9,4.8-1.3
				c-0.1-0.7-0.2-1.3-0.3-2c-0.2-1.1-1.5-1.8-2.5-1.6c-1.1,0.2-1.9,1.1-2,2.2c0,0.7,0,1.3,0,2c0,3.2,4.9,3.2,4.9,0
				c0-1.8-0.3-3.6-0.5-5.3c-0.2-1.9-0.5-3.8-0.9-5.6c-0.6-3.5-1.3-7.1-2.2-10.6C243.8,74.4,240,75.5,240.5,78.1L240.5,78.1z"/>
		</g>
	</g>
	<g>
		<g>
			<path class="st0" d="M471.5,83.4c0.2,3,0.2,5.9,0,8.9c-0.1,1.4-0.2,2.8-0.4,4.2c-0.2,1.6-0.7,3.2-0.4,4.8c0.2,0.9,1.2,1.5,2,1.5
				c0.9,0,1.7-0.7,2-1.5c0.2-0.6,0.3-1.2,0.4-1.8c0.1-1.2-1.5-2.2-2.5-1.4c-0.5,0.4-0.9,0.7-1.3,1.2c1.1,0.8,2.2,1.7,3.3,2.5
				c0.9-1.4,0.9-3.4,1.1-5c0.2-1.4,0.3-2.9,0.4-4.3c0.2-3,0.1-6-0.2-9.1c-0.1-1.2-0.9-2.2-2.2-2.2C472.6,81.2,471.4,82.2,471.5,83.4
				L471.5,83.4z"/>
		</g>
	</g>
	<g>
		<g>
			<path class="st0" d="M478.9,80.2c-0.1,1.1,0.2,2.3,0.4,3.4c0.1,1.1,0.3,2.3,0.4,3.4c0.3,2.1,0.6,4.3,0.9,6.4
				c0.3,2.1,0.6,4.3,0.9,6.4c0.2,1.2,0.3,2.3,0.5,3.5c0.2,1.1,0.2,2.4,0.6,3.4c1.5-0.4,3.1-0.9,4.6-1.3c-0.3-1.1-0.7-2.2-1.2-3.3
				c-0.4-0.9-1.1-1.6-2.2-1.4c-0.9,0.1-1.8,1-1.7,2c0.1,1.4,0.2,2.7,0.5,4c0.5,2.7,4.7,2,4.7-0.6c0-2.3-0.8-4.7-1.3-7
				c-0.4-2.1-0.9-4.2-1.3-6.3c-0.4-2.1-0.9-4.2-1.3-6.3c-0.2-1.1-0.5-2.3-0.8-3.4c-0.3-1.1-0.4-2.3-0.8-3.4
				C481.3,78.3,479,78.4,478.9,80.2L478.9,80.2z"/>
		</g>
	</g>
</g>
<g>
	<g>
		<path class="st0" d="M-84.6,437.8c-2-1.6-4.4-2.7-7-2.4c-2.6,0.3-5,1.2-7.4,2.3c-3.8,1.8-7.4,4.3-10.7,6.9
			c-6.8,5.4-10.7,13.4-9.3,22.1c0.7,4.2,3.1,8,6.6,10.4c4.1,3,9.5,3.2,14.3,2.3c8-1.6,14.9-7.4,19.1-14.1c4.8-7.6,6.4-17.1,4.3-25.8
			c-0.6-2.3-2.7-4-5-4.3c-2.2-0.3-5.1,0.7-6,2.9c-2.9,6.5-5.6,13-4.5,20.2c0.8,5.5,4.4,11.1,9.5,13.4c12.5,5.8,23.7-6.2,27.4-17.2
			c3.1-9.3,1.8-19.7-2.5-28.3c-4.5-9.2-13-15.8-22.8-18.5c-10.5-3-21.7-1.5-31.5,3c-9.5,4.3-17.2,12.5-21.9,21.8
			c-4.8,9.6-7.1,20.6-6.2,31.4c1,12.1,5.2,24.2,14.3,32.5c8.3,7.5,19.8,12.1,31.1,11.3c11.1-0.8,21.9-5.9,29.2-14.4
			c1-1.2,2.2-2.5,3-3.8c0.5-0.9,0.9-2.1,1.3-3.1c0.2-0.5,1.2-2.4,0.1-0.4c1.7-3.1,0.8-7.5-2.4-9.2c-3.2-1.7-7.3-0.9-9.2,2.4
			c0.8-1.5,0.5-0.7,0.1-0.2c-0.2,0.2-0.4,0.5-0.6,0.7c-0.8,0.8-1.5,1.6-2.2,2.6c-0.2,0.2-0.4,0.5-0.6,0.7c1.2-1.8,0.6-0.7,0.2-0.3
			c-0.4,0.5-0.8,0.9-1.2,1.4c-0.9,1-1.8,1.9-2.8,2.7c-0.2,0.2-0.5,0.4-0.7,0.6c-0.2,0.2-1.2,0.9-0.1,0.1c1-0.8,0.1-0.1-0.2,0.1
			c-0.3,0.2-0.6,0.4-0.9,0.6c-1,0.7-2.1,1.3-3.2,1.9c-0.6,0.3-1.2,0.6-1.8,0.9c-1.2,0.5,0.3-0.3,0.5-0.2c-0.2,0-0.7,0.3-0.9,0.3
			c-2.5,1-5.1,1.6-7.8,2c0.6-0.1,1.3-0.2,1.9-0.3c-2.9,0.4-5.8,0.4-8.7,0c0.6,0.1,1.3,0.2,1.9,0.3c-1.9-0.3-3.8-0.7-5.6-1.2
			c-1-0.3-1.9-0.6-2.9-1c-1.3-0.5,1.7,0.8,0.2,0.1c-0.4-0.2-0.8-0.4-1.2-0.6c-1.7-0.9-3.3-1.8-4.9-3c-0.2-0.1-0.4-0.3-0.6-0.5
			c1,0.7,1.1,0.9,0.6,0.4c-0.3-0.3-0.7-0.6-1-0.9c-0.7-0.6-1.4-1.3-2.1-2c-0.6-0.6-1.2-1.3-1.8-2c-1.2-1.5,0.7,1,0,0
			c-0.3-0.4-0.6-0.8-0.9-1.3c-0.6-0.8-1.1-1.7-1.6-2.6c-0.5-1-0.9-2.2-1.5-3.1c0.4,1.1,0.5,1.2,0.2,0.5c-0.1-0.1-0.1-0.3-0.2-0.4
			c-0.2-0.5-0.4-1.1-0.6-1.6c-0.4-1.1-0.7-2.2-1-3.3c-0.5-2.1-0.9-4.2-1.2-6.4c0.1,0.6,0.2,1.3,0.3,1.9c-0.6-4.8-0.6-9.6,0-14.4
			c-0.1,0.6-0.2,1.3-0.3,1.9c0.4-2.9,1-5.7,1.8-8.5c0.4-1.3,0.8-2.5,1.3-3.7c0.1-0.3,0.2-0.6,0.4-0.9c-0.7,2-0.3,0.8-0.1,0.3
			c0.3-0.7,0.6-1.4,1-2c0.6-1.2,1.3-2.4,2-3.6c0.3-0.5,0.7-1.1,1-1.6c0.2-0.3,0.4-0.6,0.6-0.9c0.1-0.2,1.2-1.5,0.4-0.5
			c-0.8,1,0,0,0.2-0.2c0.2-0.3,0.5-0.6,0.7-0.9c0.4-0.5,0.8-0.9,1.3-1.4c1-1.1,2.1-2.1,3.3-3.1c0.3-0.2,0.5-0.5,0.8-0.7
			c0,0-1.4,1.1-0.5,0.4c0.6-0.4,1.2-0.9,1.8-1.3c1.1-0.7,2.3-1.4,3.5-2c0.7-0.3,1.3-0.6,2-0.9c0.4-0.2,1.1-0.4-0.6,0.3
			c0.3-0.1,0.7-0.3,1-0.4c1.4-0.5,2.8-1,4.2-1.3c1.2-0.3,2.4-0.6,3.6-0.8c0.5-0.1,1.8-0.1-0.4,0c0.4,0,0.7-0.1,1.1-0.1
			c0.7-0.1,1.5-0.1,2.2-0.2c1.3-0.1,2.7,0,4,0c0.6,0,1.2,0.1,1.8,0.2c1.4,0.1-1.8-0.3-0.4-0.1c0.4,0.1,0.7,0.1,1.1,0.2
			c1.3,0.2,2.6,0.6,3.8,0.9c0.6,0.2,1.2,0.4,1.9,0.6c0.3,0.1,0.6,0.2,0.8,0.3c-2.1-0.6-0.5-0.2,0,0c1.1,0.5,2.2,1.1,3.3,1.8
			c0.6,0.4,1.1,0.7,1.6,1.1c1.1,0.8-1.1-0.9-0.4-0.3c0.3,0.2,0.6,0.5,0.9,0.7c0.9,0.8,1.7,1.6,2.5,2.5c0.4,0.4,0.7,0.8,1,1.2
			c-1.5-1.8,0,0.1,0.4,0.6c0.6,0.9,1.2,1.9,1.7,2.9c0.3,0.5,0.7,1.2,0.8,1.8c0,0-0.7-1.7-0.3-0.7c0.2,0.4,0.3,0.8,0.5,1.2
			c0.4,1.1,0.7,2.3,1,3.4c0.1,0.5,0.2,1.1,0.3,1.6c0.1,0.3,0.1,0.6,0.2,1c0.2,1.1-0.2-1.7-0.1-0.5c0.1,1.2,0.2,2.3,0.2,3.5
			c0,1.2,0.1,2.7-0.2,3.8c0,0,0.3-1.8,0.1-0.8c-0.1,0.3-0.1,0.6-0.2,0.9c-0.1,0.5-0.2,1-0.3,1.5c-0.3,1.2-0.8,2.4-1.2,3.6
			c0.8-2.1,0.1-0.4-0.1,0.1c-0.3,0.6-0.6,1.1-0.9,1.7c-0.3,0.5-0.6,0.9-0.9,1.3c-0.2,0.3-0.4,0.5-0.6,0.8c1.1-1.6,0.5-0.7,0.2-0.3
			c-0.5,0.6-1.1,1.2-1.7,1.8c-0.2,0.2-0.4,0.4-0.6,0.6c-0.2,0.2-0.4,0.4-0.6,0.5c0.8-0.6,0.9-0.7,0.3-0.3c-0.3,0.2-0.6,0.4-0.9,0.5
			c-0.3,0.1-1.1,0.4-1.3,0.7c0.3-0.1,0.5-0.2,0.8-0.3c-0.3,0.1-0.5,0.2-0.8,0.2c-0.3,0.1-0.5,0.1-0.8,0.2c0.3,0,0.6-0.1,0.9-0.1
			c-0.2-0.1-1,0-1.2,0c-0.8-0.1-0.5,0,0.6,0.1c-0.2,0-0.4-0.1-0.7-0.1c-0.2-0.1-0.4-0.1-0.6-0.2c-1-0.3,1.5,0.8,0,0
			c-0.3-0.2-0.5-0.4-0.8-0.5c0.3,0.2,0.5,0.4,0.8,0.6c-0.2-0.1-0.3-0.3-0.5-0.4c-0.2-0.2-0.5-0.5-0.7-0.7c-0.8-0.9,0.8,1.2,0.2,0.2
			c-0.4-0.7-0.8-1.4-1.2-2.1c0.8,1.3,0.4,1,0.3,0.6c-0.1-0.4-0.3-0.9-0.4-1.3c-0.1-0.3-0.2-0.7-0.2-1c0,0.3,0.1,0.7,0.1,1
			c0-0.3-0.1-0.5-0.1-0.8c-0.1-1,0-1.9,0.1-2.9c0-0.9-0.3,1.6,0,0.1c0.1-0.6,0.2-1.2,0.4-1.8c0.2-0.9,0.5-1.8,0.7-2.6
			c0.6-1.9,1.3-3.7,2.1-5.5c-3.9,0-7.8,0-11.7,0c0.2,0.7,0.3,1.3,0.5,2c0,0.2,0.1,0.3,0.1,0.5c0.1,0.7-0.1-0.8-0.1-0.8
			c0,0.5,0.1,0.9,0.1,1.4c0.1,1.4,0.1,2.9-0.1,4.3c0,0.2-0.2,1.5,0,0.4c0.1-1.1,0,0.2-0.1,0.4c-0.1,0.8-0.3,1.6-0.5,2.4
			c-0.2,0.7-0.4,1.3-0.6,2c-0.1,0.3-0.2,0.6-0.4,1c-0.5,1.2,0.4-0.9,0,0c-0.6,1.4-1.3,2.7-2.2,3.9c-0.2,0.3-0.4,0.6-0.6,0.9
			c-0.1,0.1-0.2,0.3-0.3,0.4c-0.4,0.5,0.4-0.5,0.4-0.5c-0.5,0.5-0.9,1.2-1.5,1.7c-0.5,0.5-1,1.1-1.6,1.6c-0.3,0.2-0.5,0.5-0.8,0.7
			c-0.1,0.1-0.3,0.2-0.4,0.3c-0.6,0.5,1-0.7,0.4-0.3c-1.2,0.8-2.4,1.6-3.7,2.2c-0.3,0.2-0.7,0.3-1,0.5c0.1-0.1,1.2-0.5,0.3-0.1
			c-0.2,0.1-0.4,0.1-0.6,0.2c-0.8,0.3-1.6,0.5-2.5,0.7c-0.2,0-0.4,0.1-0.6,0.1c-0.6,0.1,0.5-0.1,0.5-0.1c-0.3-0.1-0.9,0.1-1.2,0.1
			c-0.4,0-0.8,0-1.2,0c-0.2,0-0.8-0.1,0,0c0.9,0.2,0,0-0.2,0c-0.4-0.1-0.9-0.2-1.3-0.3c-1-0.3,0.8,0.5-0.1,0c-0.3-0.2-0.7-0.4-1-0.6
			c-0.1-0.1-0.3-0.2-0.4-0.3c-0.5-0.3,0.8,0.8,0.4,0.3c-0.2-0.2-0.5-0.5-0.7-0.7c-0.1-0.1-0.2-0.3-0.3-0.4c0,0,0.7,1,0.4,0.5
			c-0.3-0.5-0.6-1.4-1-1.8c0.1,0.1,0.5,1.3,0.2,0.4c0-0.2-0.1-0.3-0.2-0.5c-0.1-0.3-0.2-0.6-0.3-0.9c-0.1-0.3-0.1-0.6-0.2-0.9
			c-0.1-0.6,0.1,0.7,0.1,0.7c0-0.2,0-0.5-0.1-0.7c0-0.7,0-1.3,0-2c0-0.2,0-0.3,0-0.5c0-0.6-0.1,0.6-0.1,0.6c0.2-0.4,0.2-0.9,0.2-1.3
			c0.2-0.6,0.4-1.3,0.6-1.9c0.3-0.9-0.5,0.9,0,0.1c0.2-0.4,0.3-0.7,0.5-1c0.4-0.7,0.9-1.3,1.3-2c0.3-0.5-0.2,0.3-0.2,0.3
			c0-0.1,0.3-0.4,0.4-0.5c0.3-0.4,0.7-0.8,1-1.2c1.2-1.4,2.6-2.6,4.1-3.8c0.2-0.1,0.3-0.2,0.5-0.4c-0.3,0.3-0.5,0.4-0.1,0.1
			c0.4-0.3,0.9-0.6,1.3-1c0.8-0.5,1.5-1.1,2.3-1.6c1.6-1.1,3.1-2.3,4.8-3.2c0.2-0.1,0.4-0.2,0.6-0.3c0.4-0.2-0.4,0.1,0.3-0.1
			c0.2-0.1,0.4-0.1,0.6-0.2c0.2-0.1,0.3-0.1,0,0c-0.4,0-0.2,0,0.4-0.1c0.4-0.1,0.6-0.2,0.9-0.2c-0.4,0.1-0.3,0,0.1,0
			c0,0,0.6,0,0.3,0c-0.3,0,0.6,0.2,0.6,0.2C-84.8,444.6-82,440.1-84.6,437.8L-84.6,437.8z"/>
	</g>
</g>
</svg>
